<svg width="201" height="134" viewBox="0 0 201 134" fill="none" xmlns="http://www.w3.org/2000/svg">
<g clip-path="url(#clip0_503_3736)">
<path d="M195.392 128.974L193.417 129.815L189.23 122.598L192.146 121.355L195.392 128.974Z" fill="#FFB6B6"/>
<path d="M179.071 130.843L176.924 130.843L175.902 122.561H179.071L179.071 130.843Z" fill="#FFB6B6"/>
<path d="M179.146 133.083L172.544 133.082V132.999C172.544 132.317 172.815 131.664 173.297 131.182C173.779 130.7 174.432 130.429 175.114 130.429L176.32 129.514L178.57 130.429L179.146 130.429L179.146 133.083Z" fill="#2F2E41"/>
<path d="M196.593 130.407L190.52 132.996L190.487 132.919C190.22 132.292 190.213 131.585 190.467 130.952C190.721 130.32 191.217 129.815 191.843 129.547L192.594 128.233L195.023 128.192L195.553 127.967L196.593 130.407Z" fill="#2F2E41"/>
<path d="M176.965 81.831L173.702 101.7L174.59 104.66L173.424 106.757L175.136 125.173L174.441 126.702L176.382 127.899H180.331L180.54 111.227L181.516 108.78V107.43L183.502 97.2645L183.867 108.893L184.445 111.345L183.96 113.09L184.594 114.313L190.027 125.98H194.455L194.113 123.342C194.906 122.94 192.922 121.766 192.731 120.897L193.383 119.43L192.731 116.659L192.133 111.244L192.764 99.8138L192.467 84.4217C190.98 82.4283 189.331 80.8909 187.287 80.4604L176.965 81.831Z" fill="#2F2E41"/>
<path d="M184.911 55.6652C187.382 55.6652 189.386 53.6617 189.386 51.1901C189.386 48.7186 187.382 46.715 184.911 46.715C182.439 46.715 180.436 48.7186 180.436 51.1901C180.436 53.6617 182.439 55.6652 184.911 55.6652Z" fill="#FFB6B6"/>
<path d="M166.46 86.5253C166.404 86.274 166.404 86.0135 166.46 85.7622C166.516 85.5108 166.626 85.2748 166.783 85.0707C166.94 84.8666 167.139 84.6993 167.368 84.5807C167.596 84.4622 167.848 84.3951 168.105 84.3844L169.908 78.3915L171.992 80.888L169.961 86.1962C169.95 86.6295 169.781 87.0439 169.485 87.3608C169.19 87.6777 168.788 87.8752 168.357 87.9158C167.925 87.9564 167.494 87.8372 167.144 87.5809C166.794 87.3247 166.551 86.9491 166.46 86.5253Z" fill="#FFB6B6"/>
<path d="M178.154 61.8926L177.346 60.4165L176.305 60.7641C176.305 60.7641 175.156 61.5057 173.547 64.3053C172.802 65.6002 171.193 73.9036 171.193 73.9036L167.433 83.8617L171.267 84.5099L174.466 76.3033L178.174 68.4497L178.154 61.8926Z" fill="#5AB2FF"/>
<path d="M184.745 81.7683C187.896 81.7683 191.075 82.3886 192.377 84.6064C192.343 84.1242 192.258 83.288 192.169 82.5208L191.843 80.4595L192.173 78.5695L192.61 78.1332L191.828 77.3519L192.361 73.4067L194.121 64.1126C194.259 63.3815 194.151 62.6252 193.815 61.9615C193.478 61.2978 192.932 60.7638 192.261 60.4427L190.571 59.6298L187.83 57.0881L182.874 57.051L181.256 59.1534L176.999 60.5994L177.714 75.3818L177.246 76.4747C177.351 76.5711 177.572 76.7771 177.692 76.9098C177.862 77.0975 177.646 78.064 177.502 78.6233L177.304 80.1135L177.927 80.5584L177.117 81.5149L176.955 82.7289C177.759 82.5387 181.235 81.7683 184.745 81.7683Z" fill="#5AB2FF"/>
<path d="M186.056 55.4461C186.075 55.404 186.094 55.3618 186.113 55.3194C186.106 55.3196 186.098 55.3207 186.091 55.3209L186.056 55.4461Z" fill="#2F2E41"/>
<path d="M189.51 46.9185C189.298 46.7181 189.021 46.5987 188.73 46.5812C188.44 46.5905 188.147 46.8519 188.207 47.1351C187.675 46.194 186.829 45.4702 185.817 45.0907C184.805 44.7112 183.692 44.7003 182.673 45.0599C181.953 45.3137 181.248 45.8213 181.083 46.5659C181.067 46.7614 181.009 46.951 180.912 47.1218C180.828 47.2131 180.72 47.2779 180.6 47.3083C180.48 47.3387 180.354 47.3334 180.237 47.2929L180.23 47.2908C180.189 47.2771 180.146 47.2758 180.105 47.287C180.065 47.2981 180.028 47.3213 180.001 47.3534C179.973 47.3856 179.956 47.4252 179.951 47.4673C179.946 47.5093 179.954 47.5518 179.974 47.5893L180.178 47.9688C179.921 48.026 179.654 48.0203 179.401 47.9523C179.358 47.9412 179.314 47.9435 179.273 47.9588C179.232 47.974 179.197 48.0016 179.172 48.0376C179.148 48.0736 179.135 48.1163 179.136 48.1599C179.136 48.2035 179.151 48.2458 179.176 48.2811C179.514 48.7438 179.956 49.1211 180.466 49.3832C180.975 49.6452 181.539 49.7846 182.112 49.7903C182.925 49.7853 183.747 49.5051 184.538 49.6921C184.844 49.7644 185.131 49.9044 185.376 50.1017C185.62 50.299 185.818 50.5486 185.954 50.8323C186.09 51.116 186.161 51.4265 186.161 51.7411C186.161 52.0557 186.091 52.3663 185.956 52.6502C186.199 52.3843 186.669 52.4473 186.917 52.708C187.032 52.8475 187.117 53.0091 187.166 53.1827C187.216 53.3563 187.229 53.5383 187.205 53.7172C187.139 54.2654 186.976 54.7976 186.725 55.2891C187.686 55.2595 188.615 54.9355 189.387 54.3609C190.158 53.7863 190.735 52.9888 191.039 52.076C191.342 51.1632 191.359 50.1792 191.085 49.2569C190.812 48.3346 190.262 47.5184 189.51 46.9185Z" fill="#2F2E41"/>
<path d="M44.8808 30.2105C51.0255 30.2105 56.0068 25.2292 56.0068 19.0845C56.0068 12.9398 51.0255 7.95857 44.8808 7.95857C38.7361 7.95857 33.7549 12.9398 33.7549 19.0845C33.7549 25.2292 38.7361 30.2105 44.8808 30.2105Z" fill="#5AB2FF"/>
<path d="M13.6104 52.1809C8.02773 39.8325 8.23357 24.1803 16.8976 13.7603C19.7962 28.2094 27.7123 41.1676 39.2452 50.3421C43.7058 53.8642 49.0338 57.3172 50.2523 62.8686C51.0106 66.3227 49.9359 69.9763 48.0779 72.9851C46.2197 75.9941 43.6297 78.4693 41.0691 80.9086L40.7818 81.7433C29.64 74.0292 19.193 64.5293 13.6104 52.1809Z" fill="#F2F2F2"/>
<path d="M17.1389 13.9109C15.145 24.8293 16.6262 36.4553 21.4727 46.4586C22.5205 48.6213 23.7716 50.7239 25.4467 52.4633C27.1225 54.2035 29.1262 55.2989 31.4312 55.9719C33.5384 56.5872 35.7651 56.9725 37.6861 58.0893C39.7109 59.2664 40.9675 61.2415 41.457 63.5066C42.0559 66.2779 41.6234 69.0991 41.1045 71.8434C40.5283 74.8904 39.8816 78.0461 40.7165 81.1091C40.8177 81.4802 40.2359 81.6155 40.1349 81.2449C38.6823 75.9158 41.5065 70.6599 41.1117 65.302C40.9275 62.802 39.9888 60.3422 37.8451 58.8937C35.9706 57.6271 33.6747 57.2278 31.5358 56.6232C29.2898 55.9885 27.2727 55.0189 25.5564 53.4106C23.8006 51.7654 22.4647 49.7072 21.3662 47.5808C18.8888 42.7852 17.2557 37.5017 16.3917 32.182C15.3981 26.0678 15.4578 19.8287 16.5681 13.7347C16.637 13.3575 17.2073 13.5362 17.1389 13.9109Z" fill="white"/>
<path d="M19.7257 43.2902C17.9171 43.8698 15.9614 43.7877 14.2077 43.0584C12.4541 42.3292 11.0168 41.0004 10.1525 39.3092C9.97875 38.9664 10.5033 38.6804 10.6772 39.0236C11.4792 40.5999 12.8182 41.8376 14.4525 42.5133C16.0869 43.1891 17.909 43.2583 19.5899 42.7085C19.9554 42.5895 20.0891 43.1718 19.7257 43.2902Z" fill="white"/>
<path d="M30.3215 55.8007C32.1288 52.3646 32.5745 48.3736 31.5699 44.6234C31.47 44.2519 32.0518 44.1166 32.1515 44.4876C33.1897 48.392 32.7174 52.5444 30.8288 56.1159C30.6486 56.4562 30.1423 56.1391 30.3215 55.8007Z" fill="white"/>
<path d="M16.166 26.2619C16.9125 26.1834 17.6278 25.9207 18.2478 25.4975C18.8677 25.0743 19.3728 24.5037 19.7177 23.837C19.8936 23.4946 20.3997 23.812 20.225 24.1522C19.8405 24.887 19.2819 25.5165 18.598 25.9856C17.9141 26.4548 17.1258 26.7493 16.3018 26.8435C16.2249 26.8589 16.145 26.8444 16.0783 26.803C16.0117 26.7616 15.9633 26.6964 15.9431 26.6206C15.9255 26.5435 15.939 26.4625 15.9808 26.3954C16.0225 26.3282 16.0891 26.2802 16.166 26.2619Z" fill="white"/>
<path d="M62.7808 13.8812C62.6771 14.0981 62.5734 14.3151 62.4721 14.5364C61.0929 17.4601 59.9534 20.4911 59.065 23.5993C58.9925 23.8385 58.9226 24.082 58.8571 24.3228C56.7966 31.8341 56.1484 39.6626 56.9457 47.4105C57.2658 50.4932 57.8199 53.5472 58.6033 56.5459C59.6855 60.6871 61.1884 65.0912 60.8492 69.2263C60.8187 69.6582 60.7615 70.0877 60.6778 70.5124L41.8226 82.0291C41.7666 82.0337 41.713 82.0428 41.6568 82.0476L40.925 82.5419C40.8738 82.39 40.824 82.2315 40.7728 82.0796C40.7427 81.9917 40.7168 81.9011 40.6868 81.8132C40.668 81.7537 40.6495 81.6941 40.6292 81.6416C40.6229 81.6218 40.6168 81.6019 40.6132 81.5864C40.5929 81.5339 40.5796 81.4829 40.5619 81.4346C40.2809 80.549 40.0055 79.6598 39.7359 78.7672C39.7333 78.7629 39.7333 78.7629 39.7349 78.756C37.698 71.9491 36.2115 64.9124 35.8403 57.8738C35.8292 57.662 35.8153 57.4461 35.8128 57.229C35.6631 54.0554 35.773 50.8749 36.1415 47.7192C36.3488 45.9919 36.6434 44.2762 37.0242 42.5786C38.0166 38.1944 39.6924 33.9935 41.9902 30.13C46.572 22.4289 53.5657 16.2788 62.1252 14.0454C62.3442 13.9884 62.5592 13.9339 62.7808 13.8812Z" fill="#F2F2F2"/>
<path d="M62.8844 14.1464C54.7187 21.6636 48.9017 31.8382 46.7487 42.7432C46.2832 45.1008 46.0162 47.5329 46.3065 49.9302C46.5968 52.3286 47.5371 54.4096 48.9723 56.3347C50.2844 58.0947 51.8303 59.7429 52.6917 61.7912C53.5997 63.9501 53.4139 66.2837 52.441 68.3869C51.2507 70.9603 49.2067 72.9525 47.1402 74.8312C44.8457 76.9171 42.4293 79.0475 41.2518 81.9958C41.1091 82.353 40.5632 82.1107 40.7056 81.754C42.7544 76.6245 48.1737 74.1282 51.0843 69.6126C52.4424 67.5055 53.1738 64.9764 52.3344 62.5292C51.6003 60.3893 50.0076 58.6882 48.6637 56.9177C47.2525 55.0587 46.2258 53.0701 45.8237 50.7526C45.4124 48.3819 45.5848 45.9342 45.988 43.5751C46.8972 38.2545 48.7744 33.0526 51.2873 28.285C54.1751 22.805 57.9792 17.8593 62.5347 13.662C62.8168 13.4024 63.1646 13.8884 62.8844 14.1464Z" fill="white"/>
<path d="M47.2618 39.1616C45.4688 38.5355 43.9567 37.2924 42.9955 35.6544C42.0344 34.0163 41.6868 32.0899 42.0149 30.2193C42.0826 29.841 42.6736 29.9284 42.6058 30.3072C42.2971 32.0486 42.6211 33.843 43.5192 35.3665C44.4173 36.89 45.8305 38.0423 47.5036 38.6155C47.867 38.7404 47.6232 39.2859 47.2618 39.1616Z" fill="white"/>
<path d="M48.1898 55.53C51.7016 53.8745 54.4604 50.9563 55.9161 47.3571C56.06 47.0004 56.606 47.2426 56.4622 47.5989C54.9404 51.3414 52.0633 54.3725 48.4051 56.0871C48.0563 56.2503 47.8429 55.6923 48.1898 55.53Z" fill="white"/>
<path d="M54.6714 23.4222C55.3147 23.809 56.044 24.03 56.7938 24.0653C57.5436 24.1006 58.2904 23.9491 58.9672 23.6244C59.3138 23.4569 59.5268 24.0151 59.1825 24.1816C58.4331 24.5368 57.6081 24.7031 56.7796 24.6659C55.9511 24.6287 55.1443 24.3892 54.4297 23.9683C54.359 23.9343 54.3039 23.8746 54.2756 23.8015C54.2474 23.7283 54.248 23.6471 54.2774 23.5744C54.3098 23.5022 54.3693 23.4458 54.4431 23.4173C54.5169 23.3887 54.5989 23.3905 54.6714 23.4222Z" fill="white"/>
<path d="M107.417 38.6552C101.835 26.3068 102.041 10.6547 110.705 0.234589C113.603 14.6838 121.519 27.6419 133.052 36.8164C137.513 40.3385 142.841 43.7915 144.059 49.3429C144.818 52.7971 143.743 56.4506 141.885 59.4595C140.027 62.4685 137.437 64.9436 134.876 67.3829L134.589 68.2177C123.447 60.5036 113 51.0036 107.417 38.6552Z" fill="#F2F2F2"/>
<path d="M110.946 0.385244C108.952 11.3036 110.433 22.9296 115.28 32.9329C116.328 35.0956 117.579 37.1983 119.254 38.9376C120.93 40.6778 122.933 41.7733 125.238 42.4462C127.346 43.0615 129.572 43.4468 131.493 44.5636C133.518 45.7407 134.775 47.7158 135.264 49.9809C135.863 52.7522 135.431 55.5735 134.912 58.3177C134.335 61.3647 133.689 64.5204 134.524 67.5834C134.625 67.9546 134.043 68.0898 133.942 67.7193C132.489 62.3901 135.314 57.1342 134.919 51.7763C134.735 49.2763 133.796 46.8166 131.652 45.368C129.778 44.1014 127.482 43.7021 125.343 43.0976C123.097 42.4628 121.08 41.4932 119.364 39.8849C117.608 38.2397 116.272 36.1815 115.173 34.0551C112.696 29.2596 111.063 23.976 110.199 18.6564C109.205 12.5422 109.265 6.30305 110.375 0.208974C110.444 -0.168183 111.014 0.0105607 110.946 0.385244Z" fill="white"/>
<path d="M113.533 29.7645C111.724 30.3441 109.769 30.262 108.015 29.5328C106.261 28.8035 104.824 27.4747 103.96 25.7836C103.786 25.4408 104.31 25.1547 104.484 25.498C105.286 27.0742 106.625 28.3119 108.26 28.9877C109.894 29.6634 111.716 29.7326 113.397 29.1829C113.762 29.0638 113.896 29.6461 113.533 29.7645Z" fill="white"/>
<path d="M124.129 42.275C125.936 38.8389 126.382 34.8479 125.377 31.0977C125.277 30.7263 125.859 30.5909 125.959 30.9619C126.997 34.8664 126.524 39.0187 124.636 42.5903C124.456 42.9305 123.949 42.6135 124.129 42.275Z" fill="white"/>
<path d="M109.973 12.7362C110.72 12.6577 111.435 12.3951 112.055 11.9718C112.675 11.5486 113.18 10.978 113.525 10.3113C113.701 9.9689 114.207 10.2864 114.032 10.6265C113.648 11.3614 113.089 11.9908 112.405 12.46C111.721 12.9291 110.933 13.2236 110.109 13.3178C110.032 13.3332 109.952 13.3187 109.885 13.2773C109.819 13.2359 109.77 13.1707 109.75 13.0949C109.733 13.0178 109.746 12.9369 109.788 12.8697C109.83 12.8025 109.896 12.7546 109.973 12.7362Z" fill="white"/>
<path d="M156.588 0.355545C156.484 0.572475 156.381 0.789407 156.279 1.01077C154.9 3.93447 153.761 6.96539 152.872 10.0736C152.8 10.3128 152.73 10.5564 152.664 10.7972C150.604 18.3084 149.956 26.137 150.753 33.8848C151.073 36.9676 151.627 40.0215 152.41 43.0202C153.493 47.1614 154.995 51.5655 154.656 55.7007C154.626 56.1325 154.569 56.562 154.485 56.9867L135.63 68.5034C135.574 68.5081 135.52 68.5172 135.464 68.5219L134.732 69.0162C134.681 68.8644 134.631 68.7058 134.58 68.554C134.55 68.466 134.524 68.3755 134.494 68.2875C134.475 68.2281 134.457 68.1685 134.436 68.1159C134.43 68.0961 134.424 68.0763 134.42 68.0608C134.4 68.0082 134.387 67.9572 134.369 67.9089C134.088 67.0233 133.813 66.1342 133.543 65.2415C133.54 65.2372 133.54 65.2372 133.542 65.2303C131.505 58.4235 130.019 51.3868 129.647 44.3481C129.636 44.1364 129.622 43.9204 129.62 43.7034C129.47 40.5298 129.58 37.3492 129.949 34.1935C130.156 32.4662 130.451 30.7505 130.831 29.053C131.824 24.6687 133.5 20.4678 135.797 16.6043C140.379 8.90319 147.373 2.75309 155.932 0.519755C156.151 0.462781 156.366 0.408214 156.588 0.355545Z" fill="#F0F0F0"/>
<path d="M156.691 0.620741C148.526 8.13795 142.709 18.3125 140.556 29.2175C140.09 31.5751 139.823 34.0072 140.114 36.4045C140.404 38.8029 141.344 40.8839 142.779 42.809C144.092 44.569 145.637 46.2173 146.499 48.2655C147.407 50.4244 147.221 52.758 146.248 54.8612C145.058 57.4346 143.014 59.4268 140.947 61.3055C138.653 63.3915 136.236 65.5218 135.059 68.4701C134.916 68.8273 134.37 68.585 134.513 68.2283C136.561 63.0988 141.981 60.6025 144.891 56.0869C146.25 53.9799 146.981 51.4507 146.141 49.0036C145.407 46.8636 143.815 45.1625 142.471 43.392C141.06 41.533 140.033 39.5444 139.631 37.2269C139.219 34.8562 139.392 32.4086 139.795 30.0494C140.704 24.7288 142.581 19.527 145.094 14.7593C147.982 9.27929 151.786 4.33364 156.342 0.136358C156.624 -0.123311 156.972 0.362769 156.691 0.620741Z" fill="white"/>
<path d="M141.069 25.6359C139.276 25.0098 137.764 23.7668 136.803 22.1287C135.842 20.4906 135.494 18.5643 135.822 16.6936C135.89 16.3153 136.481 16.4027 136.413 16.7815C136.104 18.5229 136.428 20.3173 137.326 21.8408C138.224 23.3644 139.638 24.5167 141.311 25.0898C141.674 25.2147 141.43 25.7602 141.069 25.6359Z" fill="white"/>
<path d="M141.997 42.0043C145.509 40.3489 148.268 37.4306 149.723 33.8315C149.867 33.4748 150.413 33.7169 150.269 34.0732C148.748 37.8157 145.87 40.8468 142.212 42.5614C141.863 42.7246 141.65 42.1666 141.997 42.0043Z" fill="white"/>
<path d="M148.479 9.89647C149.122 10.2833 149.851 10.5043 150.601 10.5396C151.351 10.5749 152.098 10.4234 152.774 10.0987C153.121 9.93122 153.334 10.4894 152.99 10.6559C152.24 11.0111 151.415 11.1774 150.587 11.1402C149.758 11.103 148.951 10.8635 148.237 10.4426C148.166 10.4086 148.111 10.3489 148.083 10.2758C148.054 10.2026 148.055 10.1214 148.085 10.0487C148.117 9.97654 148.176 9.92007 148.25 9.89157C148.324 9.86307 148.406 9.86483 148.479 9.89647Z" fill="white"/>
<path d="M36.2637 130.235L38.3245 131.831L46.3372 133.221L55.2432 111.083C55.2432 111.083 60.6971 94.0211 75.9681 97.5116L125.053 96.639C125.053 96.639 140.124 95.0944 142.615 102.202C143.086 103.548 155.813 133.289 155.813 133.289L164.736 132.03L163.667 106.674L142.474 57.48L105.637 55.1799L67.6781 57.8072L36.2637 130.235Z" fill="#3F3D56"/>
<path d="M77.059 99.0387C84.8905 99.0387 91.2392 92.6901 91.2392 84.8586C91.2392 77.0271 84.8905 70.6784 77.059 70.6784C69.2276 70.6784 62.8789 77.0271 62.8789 84.8586C62.8789 92.6901 69.2276 99.0387 77.059 99.0387Z" fill="#2F2E41"/>
<path d="M124.617 99.0387C132.449 99.0387 138.797 92.6901 138.797 84.8586C138.797 77.0271 132.449 70.6784 124.617 70.6784C116.786 70.6784 110.437 77.0271 110.437 84.8586C110.437 92.6901 116.786 99.0387 124.617 99.0387Z" fill="#2F2E41"/>
<path d="M60.479 38.3913L66.3176 37.2465C66.3176 37.2465 110.277 30.974 138.063 38.3913L135.961 44.2816L62.4424 43.8452L60.479 38.3913Z" fill="#E6E6E6"/>
<path d="M119.75 68.8241H82.4429C77.9132 68.8241 73.9983 65.6876 73.1342 61.3661L69.0515 40.9458C68.9612 40.5002 68.9648 40.0406 69.0621 39.5965C69.1594 39.1523 69.3482 38.7334 69.6166 38.3663C69.8973 37.9812 70.2542 37.6579 70.6651 37.4166C71.0759 37.1752 71.5321 37.0208 72.0051 36.9631C91.6811 34.5208 111.165 34.5166 129.915 36.9504C130.381 37.0075 130.831 37.16 131.236 37.3984C131.641 37.6368 131.992 37.956 132.269 38.3361C132.535 38.6978 132.725 39.1106 132.825 39.5486C132.925 39.9867 132.934 40.4407 132.851 40.8824L129.083 61.2401C128.269 65.6345 124.344 68.8241 119.75 68.8241Z" fill="#5AB2FF"/>
<path d="M43.8838 41.7159L44.0462 38.7937C44.0716 38.3384 44.2068 37.8961 44.4404 37.5045C44.674 37.113 44.9991 36.7838 45.3877 36.5453C47.7432 35.1003 54.0972 31.9187 62.2058 33.5865C62.7752 33.7043 63.2945 33.9947 63.6931 34.418C64.0917 34.8414 64.3503 35.3772 64.4337 35.9526L64.6508 37.4731L43.8838 41.7159Z" fill="#3F3D56"/>
<path d="M158.228 41.7159L137.461 37.4731L137.81 35.0304C137.851 34.7419 137.976 34.4721 138.171 34.2556C138.366 34.0391 138.621 33.8858 138.903 33.8154C148.255 31.4686 155.413 35.6362 157.384 36.9694C157.571 37.0964 157.726 37.2647 157.838 37.4613C157.949 37.6579 158.014 37.8775 158.028 38.1032L158.228 41.7159Z" fill="#3F3D56"/>
<path d="M37.2903 132.141C36.7898 132.146 36.2983 132.008 35.8741 131.742C30.3135 128.495 26.8469 122.545 25.5784 114.062C24.5305 107.054 24.9681 98.2588 26.8789 87.9194C30.2666 69.5884 37.3669 51.2656 40.2623 44.2388C40.6459 43.3114 41.242 42.4869 42.0025 41.832C42.7631 41.1771 43.6668 40.7099 44.6409 40.4682C50.6101 39 61.0303 36.537 63.7516 36.537C67.4809 36.537 69.4988 40.0476 69.5188 40.0831L69.53 40.1121L72.8051 54.3142V54.5191C74.6119 60.6324 73.2694 65.0485 71.824 67.6768C70.2553 70.5296 68.2254 71.9539 68.2052 71.968C65.0177 74.3945 59.8247 82.2117 54.6565 92.3662C49.2858 102.919 45.3044 113.331 44.0066 120.22C42.418 128.652 40.0893 131.233 38.4156 131.913C38.0588 132.062 37.6766 132.139 37.2903 132.141Z" fill="#E6E6E6"/>
<path d="M118.52 67.0789H83.2704C81.1899 67.076 79.175 66.3509 77.5697 65.0274C75.9645 63.704 74.8685 61.8643 74.469 59.8225L70.6113 39.9624C70.5256 39.5228 70.531 39.0703 70.627 38.6329C70.7231 38.1954 70.9078 37.7823 71.1698 37.419C71.4318 37.0557 71.7655 36.75 72.1502 36.5208C72.535 36.2915 72.9627 36.1436 73.4068 36.0861C91.999 33.7108 110.409 33.7067 128.126 36.0737C128.564 36.1334 128.985 36.2811 129.364 36.5079C129.744 36.7348 130.073 37.0361 130.333 37.3937C130.593 37.7513 130.777 38.1578 130.876 38.5887C130.974 39.0196 130.984 39.466 130.905 39.9009L127.344 59.7C126.974 61.7701 125.886 63.6437 124.273 64.9928C122.66 66.3418 120.623 67.0803 118.52 67.0789Z" fill="#E6E6E6"/>
<path d="M164.823 132.141C164.436 132.139 164.054 132.062 163.697 131.913C162.023 131.233 159.694 128.652 158.106 120.22C156.808 113.331 152.826 102.919 147.456 92.3662C142.288 82.2117 137.095 74.3945 133.903 71.9651C133.887 71.9539 131.857 70.5296 130.288 67.6768C128.843 65.0484 127.5 60.6324 129.307 54.5191L129.31 54.2897L132.586 40.0967L132.593 40.0831C132.613 40.0476 134.631 36.537 138.361 36.537C141.082 36.537 151.502 39 157.471 40.4682C158.445 40.71 159.349 41.1771 160.11 41.8321C160.87 42.487 161.466 43.3114 161.85 44.2388C164.745 51.2656 171.846 69.5884 175.233 87.9193C177.144 98.2588 177.582 107.054 176.534 114.062C175.265 122.545 171.799 128.495 166.23 131.747C165.808 132.01 165.32 132.147 164.823 132.141Z" fill="#E6E6E6"/>
<path d="M77.0589 90.9669C81.7578 90.9669 85.567 87.1577 85.567 82.4589C85.567 77.76 81.7578 73.9508 77.0589 73.9508C72.36 73.9508 68.5508 77.76 68.5508 82.4589C68.5508 87.1577 72.36 90.9669 77.0589 90.9669Z" fill="#3F3D56"/>
<path d="M77.0588 88.1309C80.1914 88.1309 82.7308 85.5915 82.7308 82.4589C82.7308 79.3263 80.1914 76.7868 77.0588 76.7868C73.9262 76.7868 71.3867 79.3263 71.3867 82.4589C71.3867 85.5915 73.9262 88.1309 77.0588 88.1309Z" fill="#2F2E41"/>
<path d="M124.617 90.9669C129.316 90.9669 133.125 87.1577 133.125 82.4589C133.125 77.76 129.316 73.9508 124.617 73.9508C119.918 73.9508 116.109 77.76 116.109 82.4589C116.109 87.1577 119.918 90.9669 124.617 90.9669Z" fill="#3F3D56"/>
<path d="M124.617 88.1309C127.749 88.1309 130.289 85.5915 130.289 82.4589C130.289 79.3263 127.749 76.7868 124.617 76.7868C121.484 76.7868 118.945 79.3263 118.945 82.4589C118.945 85.5915 121.484 88.1309 124.617 88.1309Z" fill="#2F2E41"/>
<path d="M95.6022 72.2055C95.9637 72.2055 96.2567 71.9125 96.2567 71.5511C96.2567 71.1896 95.9637 70.8966 95.6022 70.8966C95.2408 70.8966 94.9478 71.1896 94.9478 71.5511C94.9478 71.9125 95.2408 72.2055 95.6022 72.2055Z" fill="#2F2E41"/>
<path d="M98.4382 72.2055C98.7996 72.2055 99.0926 71.9125 99.0926 71.5511C99.0926 71.1896 98.7996 70.8966 98.4382 70.8966C98.0767 70.8966 97.7837 71.1896 97.7837 71.5511C97.7837 71.9125 98.0767 72.2055 98.4382 72.2055Z" fill="#2F2E41"/>
<path d="M97.1291 74.6052C97.4905 74.6052 97.7835 74.3122 97.7835 73.9508C97.7835 73.5893 97.4905 73.2963 97.1291 73.2963C96.7676 73.2963 96.4746 73.5893 96.4746 73.9508C96.4746 74.3122 96.7676 74.6052 97.1291 74.6052Z" fill="#2F2E41"/>
<path d="M99.7472 74.6052C100.109 74.6052 100.402 74.3122 100.402 73.9508C100.402 73.5893 100.109 73.2963 99.7472 73.2963C99.3858 73.2963 99.0928 73.5893 99.0928 73.9508C99.0928 74.3122 99.3858 74.6052 99.7472 74.6052Z" fill="#2F2E41"/>
<path d="M102.365 74.6052C102.726 74.6052 103.019 74.3122 103.019 73.9508C103.019 73.5893 102.726 73.2963 102.365 73.2963C102.003 73.2963 101.71 73.5893 101.71 73.9508C101.71 74.3122 102.003 74.6052 102.365 74.6052Z" fill="#2F2E41"/>
<path d="M104.983 74.6052C105.345 74.6052 105.638 74.3122 105.638 73.9508C105.638 73.5893 105.345 73.2963 104.983 73.2963C104.622 73.2963 104.329 73.5893 104.329 73.9508C104.329 74.3122 104.622 74.6052 104.983 74.6052Z" fill="#2F2E41"/>
<path d="M101.274 72.2055C101.636 72.2055 101.929 71.9125 101.929 71.5511C101.929 71.1896 101.636 70.8966 101.274 70.8966C100.913 70.8966 100.62 71.1896 100.62 71.5511C100.62 71.9125 100.913 72.2055 101.274 72.2055Z" fill="#2F2E41"/>
<path d="M104.111 72.2055C104.472 72.2055 104.765 71.9125 104.765 71.5511C104.765 71.1896 104.472 70.8966 104.111 70.8966C103.749 70.8966 103.456 71.1896 103.456 71.5511C103.456 71.9125 103.749 72.2055 104.111 72.2055Z" fill="#2F2E41"/>
<path d="M106.946 72.2055C107.308 72.2055 107.601 71.9125 107.601 71.5511C107.601 71.1896 107.308 70.8966 106.946 70.8966C106.585 70.8966 106.292 71.1896 106.292 71.5511C106.292 71.9125 106.585 72.2055 106.946 72.2055Z" fill="#2F2E41"/>
<path d="M103.892 91.7305H98.22C97.9596 91.7305 97.7099 91.6271 97.5258 91.443C97.3417 91.2588 97.2383 91.0092 97.2383 90.7488C97.2383 90.4884 97.3417 90.2387 97.5258 90.0546C97.7099 89.8705 97.9596 89.7671 98.22 89.7671H103.892C104.152 89.7671 104.402 89.8705 104.586 90.0546C104.77 90.2387 104.874 90.4884 104.874 90.7488C104.874 91.0092 104.77 91.2588 104.586 91.443C104.402 91.6271 104.152 91.7305 103.892 91.7305Z" fill="#2F2E41"/>
<path d="M66.3355 49.0562C65.9694 49.0552 65.6143 48.9308 65.3276 48.7033C65.0409 48.4757 64.8392 48.1582 64.7551 47.8019L63.8852 44.1089C63.7868 43.6891 63.8591 43.2474 64.0861 42.8809C64.3131 42.5144 64.6764 42.2529 65.0961 42.1541C65.5158 42.0552 65.9575 42.127 66.3243 42.3537C66.6911 42.5804 66.9528 42.9434 67.0521 43.3629L67.922 47.0559C67.9779 47.295 67.9791 47.5436 67.9255 47.7832C67.8718 48.0228 67.7647 48.2471 67.6122 48.4395C67.4596 48.6318 67.2655 48.7872 67.0444 48.894C66.8233 49.0008 66.581 49.0562 66.3355 49.0562Z" fill="#3F3D56"/>
<path d="M135.995 48.838C135.75 48.8381 135.507 48.7826 135.286 48.6758C135.065 48.5691 134.871 48.4137 134.718 48.2213C134.566 48.029 134.459 47.8046 134.405 47.565C134.351 47.3254 134.353 47.0768 134.409 46.8377L135.278 43.1448C135.378 42.7252 135.64 42.3622 136.006 42.1355C136.373 41.9089 136.815 41.8371 137.234 41.9359C137.654 42.0348 138.017 42.2962 138.244 42.6627C138.472 43.0293 138.544 43.4709 138.445 43.8907L137.575 47.5837C137.491 47.94 137.29 48.2575 137.003 48.4851C136.716 48.7127 136.361 48.837 135.995 48.838Z" fill="#3F3D56"/>
<path d="M54.3332 59.9568C53.7979 59.9569 53.2755 59.7921 52.8372 59.4848L51.0113 58.2067C50.6677 57.966 50.3872 57.6461 50.1935 57.2741C49.9998 56.902 49.8986 56.4888 49.8984 56.0693V52.1549C49.8993 51.3688 50.212 50.6152 50.7678 50.0594C51.3236 49.5036 52.0772 49.191 52.8632 49.1901H55.6599C56.4459 49.191 57.1995 49.5036 57.7553 50.0594C58.3111 50.6152 58.6238 51.3688 58.6247 52.1549V56.1078C58.6239 56.5164 58.5275 56.9191 58.3432 57.2838C58.1589 57.6485 57.8918 57.965 57.5633 58.208L55.8808 59.4478C55.4326 59.7785 54.8903 59.957 54.3332 59.9568Z" fill="#3F3D56"/>
<path d="M55.6599 74.278H52.8632C52.0772 74.2771 51.3236 73.9645 50.7678 73.4086C50.212 72.8528 49.8993 72.0992 49.8984 71.3132V67.3987C49.8986 66.9793 49.9998 66.566 50.1935 66.194C50.3872 65.822 50.6677 65.5021 51.0113 65.2614L52.8372 63.9832C53.2844 63.6698 53.8188 63.5048 54.3649 63.5114C54.9111 63.5181 55.4413 63.6961 55.8808 64.0203L57.5633 65.2601C57.8918 65.5031 58.1589 65.8196 58.3432 66.1842C58.5275 66.5489 58.6239 66.9517 58.6247 67.3603V71.3132C58.6238 72.0992 58.3111 72.8528 57.7553 73.4086C57.1995 73.9645 56.4459 74.2771 55.6599 74.278Z" fill="#3F3D56"/>
<path d="M64.386 66.0972H60.4715C60.0521 66.097 59.6388 65.9958 59.2668 65.8021C58.8947 65.6084 58.5748 65.3279 58.3342 64.9843L57.056 63.1584C56.7426 62.7112 56.5775 62.1768 56.5842 61.6306C56.5908 61.0845 56.7688 60.5543 57.0931 60.1148L58.3329 58.4323C58.5759 58.1038 58.8923 57.8367 59.257 57.6524C59.6217 57.4681 60.0245 57.3717 60.4331 57.3709H64.386C65.172 57.3718 65.9256 57.6845 66.4814 58.2403C67.0372 58.7961 67.3499 59.5497 67.3508 60.3357V63.1323C67.3499 63.9184 67.0372 64.672 66.4814 65.2278C65.9256 65.7836 65.172 66.0963 64.386 66.0972Z" fill="#3F3D56"/>
<path d="M47.8334 66.0972H43.9189C43.1329 66.0963 42.3793 65.7836 41.8235 65.2278C41.2676 64.672 40.955 63.9184 40.9541 63.1323V60.3357C40.955 59.5497 41.2676 58.7961 41.8235 58.2403C42.3793 57.6845 43.1329 57.3718 43.9189 57.3709H47.8718C48.2804 57.3717 48.6832 57.4681 49.0479 57.6524C49.4125 57.8367 49.729 58.1038 49.972 58.4323L51.2118 60.1148C51.5361 60.5543 51.7141 61.0845 51.7207 61.6306C51.7274 62.1768 51.5623 62.7112 51.2489 63.1584L49.9707 64.9843C49.7301 65.3279 49.4102 65.6084 49.0381 65.8021C48.6661 65.9958 48.2528 66.097 47.8334 66.0972Z" fill="#3F3D56"/>
<path d="M147.959 55.6257C150.731 55.6257 152.977 53.3792 152.977 50.6081C152.977 47.8369 150.731 45.5905 147.959 45.5905C145.188 45.5905 142.942 47.8369 142.942 50.6081C142.942 53.3792 145.188 55.6257 147.959 55.6257Z" fill="#3F3D56"/>
<path d="M159.085 67.1879C161.857 67.1879 164.103 64.9415 164.103 62.1703C164.103 59.3992 161.857 57.1528 159.085 57.1528C156.314 57.1528 154.068 59.3992 154.068 62.1703C154.068 64.9415 156.314 67.1879 159.085 67.1879Z" fill="#3F3D56"/>
<path d="M147.959 78.0957C150.731 78.0957 152.977 75.8493 152.977 73.0782C152.977 70.307 150.731 68.0606 147.959 68.0606C145.188 68.0606 142.942 70.307 142.942 73.0782C142.942 75.8493 145.188 78.0957 147.959 78.0957Z" fill="#3F3D56"/>
<path d="M136.834 66.9698C139.605 66.9698 141.851 64.7233 141.851 61.9522C141.851 59.1811 139.605 56.9346 136.834 56.9346C134.062 56.9346 131.816 59.1811 131.816 61.9522C131.816 64.7233 134.062 66.9698 136.834 66.9698Z" fill="#3F3D56"/>
<path d="M159.086 65.4427C158.439 65.4427 157.806 65.2508 157.268 64.8912C156.73 64.5316 156.31 64.0205 156.063 63.4226C155.815 62.8247 155.75 62.1667 155.876 61.5319C156.003 60.8972 156.314 60.3141 156.772 59.8564C157.23 59.3988 157.813 59.0871 158.447 58.9609C159.082 58.8346 159.74 58.8994 160.338 59.1471C160.936 59.3948 161.447 59.8142 161.807 60.3523C162.166 60.8905 162.358 61.5231 162.358 62.1703C162.357 63.0379 162.012 63.8697 161.399 64.4831C160.785 65.0966 159.953 65.4417 159.086 65.4427ZM159.086 59.3343C158.525 59.3343 157.977 59.5006 157.51 59.8123C157.044 60.1239 156.68 60.5668 156.466 61.085C156.251 61.6032 156.195 62.1735 156.304 62.7236C156.414 63.2738 156.684 63.7791 157.08 64.1757C157.477 64.5723 157.982 64.8424 158.533 64.9519C159.083 65.0613 159.653 65.0051 160.171 64.7905C160.689 64.5758 161.132 64.2123 161.444 63.7459C161.756 63.2796 161.922 62.7312 161.922 62.1703C161.921 61.4184 161.622 60.6976 161.09 60.1659C160.559 59.6342 159.838 59.3351 159.086 59.3343Z" fill="#E6E6E6"/>
<path d="M151.466 53.0426L144.89 52.9496L148.258 47.3009L151.466 53.0426ZM145.651 52.524L150.716 52.5957L148.246 48.1735L145.651 52.524Z" fill="#E6E6E6"/>
<path d="M139.452 64.5701H134.216V59.3343H139.452V64.5701ZM134.652 64.1338H139.015V59.7706H134.652V64.1338Z" fill="#E6E6E6"/>
<path d="M150.668 75.3308L148.269 72.9368L150.384 70.8254L150.076 70.5165L147.96 72.6283L145.844 70.5165L145.536 70.8254L147.651 72.9368L145.252 75.3308L145.561 75.6397L147.96 73.245L150.359 75.6397L150.668 75.3308Z" fill="#E6E6E6"/>
<path d="M54.326 16.1086C53.6788 16.1086 53.0462 15.9167 52.508 15.5571C51.9699 15.1975 51.5505 14.6864 51.3028 14.0885C51.0551 13.4906 50.9903 12.8326 51.1166 12.1978C51.2429 11.5631 51.5545 10.98 52.0122 10.5223C52.4698 10.0647 53.0529 9.75303 53.6876 9.62677C54.3224 9.5005 54.9804 9.56531 55.5783 9.81298C56.1763 10.0607 56.6873 10.4801 57.0469 11.0182C57.4065 11.5563 57.5984 12.189 57.5984 12.8362C57.5974 13.7038 57.2523 14.5356 56.6389 15.149C56.0254 15.7625 55.1936 16.1076 54.326 16.1086ZM54.326 10.0002C53.7651 10.0002 53.2168 10.1665 52.7504 10.4782C52.2841 10.7898 51.9206 11.2327 51.7059 11.7509C51.4912 12.2691 51.4351 12.8394 51.5445 13.3895C51.6539 13.9396 51.9241 14.445 52.3207 14.8416C52.7173 15.2382 53.2226 15.5083 53.7728 15.6178C54.3229 15.7272 54.8931 15.671 55.4114 15.4564C55.9296 15.2417 56.3725 14.8782 56.6841 14.4118C56.9957 13.9455 57.1621 13.3971 57.1621 12.8362C57.1612 12.0843 56.8622 11.3635 56.3305 10.8318C55.7988 10.3001 55.078 10.001 54.326 10.0002Z" fill="#E6E6E6"/>
<path d="M46.9244 10.6895L40.3481 10.5965L43.7169 4.94778L46.9244 10.6895ZM41.11 10.1709L46.1749 10.2425L43.7045 5.82041L41.11 10.1709Z" fill="#E6E6E6"/>
<path d="M37.2455 18.6482H32.0098V13.4125H37.2455V18.6482ZM32.4461 18.2119H36.8092V13.8488H32.4461V18.2119Z" fill="#E6E6E6"/>
<path d="M41.981 28.3963L39.5824 26.0022L41.6976 23.8911L41.3893 23.5822L39.2735 25.694L37.1576 23.5822L36.8493 23.8911L38.9645 26.0022L36.5659 28.3963L36.8742 28.7052L39.2735 26.3105L41.6727 28.7052L41.981 28.3963Z" fill="#E6E6E6"/>
<path opacity="0.2" d="M189.737 75.1506L181.269 81.5236L190.828 77.3322L189.737 75.1506Z" fill="black"/>
<path d="M33.1006 83.0042L22.411 83.4405L21.1021 76.2414L30.2646 73.4054L33.1006 83.0042Z" fill="#A0616A"/>
<path d="M29.1704 65.3607L26.7861 62.933L29.7095 58.4629L34.7132 50.134C34.5497 49.7752 34.499 49.3752 34.5678 48.9869C34.6365 48.5987 34.8216 48.2405 35.0984 47.9597C35.3752 47.6789 35.7307 47.4887 36.1179 47.4144C36.5052 47.34 36.9059 47.385 37.267 47.5433C37.6281 47.7016 37.9326 47.9658 38.1403 48.301C38.348 48.6362 38.449 49.0265 38.4301 49.4203C38.4111 49.8142 38.273 50.193 38.0341 50.5066C37.7951 50.8203 37.4666 51.054 37.0919 51.1769L32.9619 60.0688L29.1704 65.3607Z" fill="#A0616A"/>
<path d="M26.5293 70.9029C26.2494 71.3364 25.8505 71.6801 25.3804 71.893C24.9103 72.1059 24.3888 72.1789 23.8783 72.1032C23.3924 72.0459 22.9338 71.8479 22.5589 71.5336C22.1839 71.2193 21.9089 70.8023 21.7676 70.3339C21.6635 70.0015 21.6332 69.6503 21.6788 69.3049C21.7244 68.9596 21.8447 68.6283 22.0315 68.3342C23.6265 65.6454 26.5682 62.0944 26.5977 62.059L26.6446 62.0025L31.6061 63.0775L26.5293 70.9029Z" fill="#5AB2FF"/>
<path d="M30.5529 130.408L33.5174 130.407L34.9276 118.973L30.5522 118.973L30.5529 130.408Z" fill="#A0616A"/>
<path d="M29.7964 129.44L35.6347 129.439H35.6349C36.6216 129.44 37.5679 129.831 38.2657 130.529C38.9634 131.227 39.3554 132.173 39.3555 133.16V133.281L29.7966 133.281L29.7964 129.44Z" fill="#2F2E41"/>
<path d="M7.46973 129.124L10.4009 129.567L13.5048 118.472L9.66219 117.818L7.46973 129.124Z" fill="#A0616A"/>
<path d="M6.86657 128.054L12.6393 128.927L12.6395 128.927C13.6152 129.074 14.4922 129.603 15.0778 130.398C15.6634 131.192 15.9096 132.186 15.7621 133.162L15.7441 133.281L6.29248 131.853L6.86657 128.054Z" fill="#2F2E41"/>
<path d="M21.9743 81.259L32.2277 79.5137L35.4002 86.0532L35.5211 128.733L29.8937 128.697L27.5414 94.1538L12.5492 126.073L6.50391 125.347L19.6825 91.1312C19.6825 91.1312 18.9571 85.086 21.2543 82.0633L21.9743 81.259Z" fill="#2F2E41"/>
<path d="M18.1683 68.3749C18.0115 67.9042 17.9949 67.3981 18.1203 66.9181C18.2458 66.438 18.5079 66.0048 18.8749 65.6709L20.332 64.3463L24.4401 63.6542L27.0088 63.1874L31.1373 75.1506L21.1101 79.7575C20.2302 79.5675 19.8787 79.0861 20.3907 78.129L18.1683 68.3749Z" fill="#5AB2FF"/>
<path d="M27.3706 72.4116L30.239 70.5811L34.0076 74.366L41.1214 80.9842C41.5063 80.8985 41.9081 80.9316 42.2737 81.0792C42.6393 81.2268 42.9515 81.482 43.169 81.8109C43.3865 82.1398 43.499 82.527 43.4916 82.9212C43.4843 83.3154 43.3574 83.6981 43.1278 84.0187C42.8982 84.3393 42.5767 84.5825 42.2058 84.7164C41.835 84.8503 41.4322 84.8684 41.0508 84.7684C40.6694 84.6683 40.3273 84.4549 40.0699 84.1562C39.8124 83.8576 39.6517 83.4878 39.609 83.0958L31.7638 77.2158L27.3706 72.4116Z" fill="#A0616A"/>
<path d="M22.4946 68.681C22.1284 68.3174 21.8746 67.8561 21.7636 67.3521C21.6526 66.8482 21.6891 66.3229 21.8687 65.8392C22.0254 65.3757 22.314 64.9681 22.699 64.6663C23.0841 64.3645 23.5488 64.1817 24.0363 64.1401C24.3831 64.1071 24.7329 64.1501 25.0614 64.2661C25.3899 64.3821 25.6891 64.5684 25.9382 64.812C28.2388 66.9286 31.1045 70.5414 31.1331 70.5775L31.1786 70.635L29.1006 75.2669L22.4946 68.681Z" fill="#5AB2FF"/>
<path d="M22.6369 62.1988C25.1274 62.1988 27.1464 60.1798 27.1464 57.6893C27.1464 55.1987 25.1274 53.1798 22.6369 53.1798C20.1464 53.1798 18.1274 55.1987 18.1274 57.6893C18.1274 60.1798 20.1464 62.1988 22.6369 62.1988Z" fill="#A0616A"/>
<path d="M18.9862 64.1136C18.2869 64.1134 17.5883 64.0708 16.8941 63.986L16.799 63.9744L16.0726 60.031C15.7645 58.3593 16.108 56.6331 17.0325 55.2067C17.9571 53.7803 19.3925 52.7619 21.0443 52.3604C21.1545 52.3325 21.2703 52.3355 21.3789 52.3692C21.4875 52.4028 21.5847 52.4657 21.6599 52.551L21.8331 52.4906C22.4964 52.2593 23.1987 52.161 23.9 52.2011C24.6013 52.2412 25.2878 52.4191 25.9203 52.7246C26.5529 53.03 27.119 53.4571 27.5865 53.9814C28.054 54.5056 28.4137 55.1169 28.6449 55.7801L28.6879 55.9033L27.5318 56.3064C27.1716 56.432 26.8439 56.6364 26.5726 56.9046C26.3013 57.1727 26.0931 57.498 25.9633 57.8567C25.8335 58.2155 25.7853 58.5986 25.8222 58.9783C25.8591 59.358 25.9802 59.7247 26.1766 60.0518L27.3586 62.0195L27.2328 62.0826C24.6816 63.398 21.8564 64.0937 18.9862 64.1136Z" fill="#2F2E41"/>
<path d="M173.912 82.9843C173.964 82.7321 174.071 82.4945 174.225 82.2882C174.379 82.0818 174.576 81.9118 174.803 81.7899C175.03 81.6681 175.28 81.5974 175.537 81.583C175.794 81.5685 176.051 81.6106 176.29 81.7063L180.392 76.9794L181.269 80.1109L177.24 84.1195C177.053 84.5104 176.728 84.819 176.329 84.9868C175.929 85.1547 175.482 85.1701 175.072 85.0302C174.661 84.8902 174.317 84.6047 174.103 84.2276C173.889 83.8505 173.821 83.4081 173.912 82.9843Z" fill="#FFB6B6"/>
<path d="M192.213 62.2029L193.893 62.112L194.146 63.18C194.146 63.18 194.121 64.5476 192.589 67.3902C191.057 70.2329 179.187 82.8891 179.187 82.8891L176.616 79.9716L182.97 73.4269L186.818 66.5673L192.213 62.2029Z" fill="#5AB2FF"/>
<path d="M0.772043 133.524H200.228C200.3 133.524 200.369 133.495 200.42 133.444C200.471 133.393 200.5 133.324 200.5 133.251C200.5 133.179 200.471 133.11 200.42 133.059C200.369 133.008 200.3 132.979 200.228 132.979H0.772043C0.699893 132.979 0.630699 133.008 0.579681 133.059C0.528664 133.11 0.5 133.179 0.5 133.251C0.5 133.324 0.528664 133.393 0.579681 133.444C0.630699 133.495 0.699893 133.524 0.772043 133.524Z" fill="#CCCCCC"/>
</g>
<defs>
<clipPath id="clip0_503_3736">
<rect width="200" height="133.524" fill="white" transform="translate(0.5)"/>
</clipPath>
</defs>
</svg>
