<svg width="201" height="125" viewBox="0 0 201 125" fill="none" xmlns="http://www.w3.org/2000/svg">
<g clip-path="url(#clip0_503_3660)">
<path d="M0.5 124.582C0.5 124.774 0.654602 124.929 0.847123 124.929H200.153C200.345 124.929 200.5 124.774 200.5 124.582C200.5 124.389 200.345 124.235 200.153 124.235H0.847123C0.654602 124.235 0.5 124.389 0.5 124.582Z" fill="#3F3D56"/>
<path d="M83.1919 124.841H20.8937C18.4058 124.841 16.3818 122.817 16.3818 120.329V4.51187C16.3818 2.02399 18.4058 0 20.8937 0H83.1919C85.6798 0 87.7038 2.02399 87.7038 4.51187V120.329C87.7038 122.817 85.6798 124.841 83.1919 124.841ZM20.8937 0.583371C18.7276 0.583371 16.9652 2.34573 16.9652 4.51187V120.329C16.9652 122.496 18.7276 124.258 20.8937 124.258H83.1919C85.358 124.258 87.1204 122.496 87.1204 120.329V4.51187C87.1204 2.34573 85.358 0.583371 83.1919 0.583371H20.8937Z" fill="#3F3D56"/>
<path d="M194.918 58.8933C194.672 58.478 193.606 58.9226 193.411 58.5458C193.215 58.1703 194.205 57.5981 194.771 56.2911C194.873 56.0554 195.515 54.5701 195.04 54.1117C194.138 53.243 190.011 56.8281 188.567 55.6549C188.25 55.3974 188.029 54.8834 187.069 54.0489C186.688 53.7169 186.457 53.567 186.234 53.6228C185.917 53.7019 185.892 54.126 185.552 54.9599C185.042 56.2104 184.741 56.1349 184.444 57.1326C184.224 57.8733 184.274 58.3039 184.015 58.3878C183.648 58.5065 183.31 57.7209 182.845 57.7912C182.37 57.863 182.083 58.7777 181.992 59.4626C181.822 60.7478 182.294 61.5958 182.556 62.4876C182.84 63.4566 183.009 64.9304 182.352 67.0167L175.854 85.3247C177.289 81.568 181.443 71.2697 183.188 67.4428C183.692 66.3381 184.248 65.2175 185.391 64.7753C186.49 64.3495 188.001 64.6037 189.926 64.1398C190.151 64.0857 190.775 63.9269 190.854 63.5598C190.919 63.2564 190.552 63.087 190.608 62.8027C190.684 62.4215 191.406 62.4168 192.293 61.977C192.918 61.6668 193.308 61.298 193.643 60.9808C193.744 60.8852 195.246 59.4461 194.918 58.8933Z" fill="#F2F2F2"/>
<path d="M169.353 68.5314C169.078 68.5324 168.989 69.1836 168.748 69.171C168.507 69.1584 168.512 68.5075 168.034 67.8528C167.947 67.7348 167.404 66.9908 167.042 67.0921C166.355 67.284 166.924 70.3438 165.931 70.7142C165.714 70.7954 165.397 70.7558 164.711 70.9858C164.438 71.0773 164.298 71.1473 164.261 71.273C164.208 71.4514 164.409 71.5861 164.72 71.9934C165.187 72.6043 165.063 72.7305 165.467 73.1641C165.767 73.486 165.993 73.5855 165.959 73.737C165.912 73.9514 165.429 73.8905 165.329 74.1391C165.227 74.3927 165.593 74.7975 165.903 75.0396C166.485 75.4939 167.037 75.5069 167.551 75.6358C168.108 75.7759 168.88 76.1183 169.715 77.0425L176.826 85.5142C175.396 83.7262 171.54 78.7161 170.165 76.7553C169.768 76.1893 169.379 75.5929 169.491 74.9046C169.6 74.242 170.16 73.574 170.488 72.4951C170.526 72.3691 170.629 72.017 170.471 71.8725C170.341 71.7531 170.152 71.8844 170.029 71.7747C169.863 71.6275 170.069 71.2719 170.109 70.7096C170.138 70.3131 170.069 70.0154 170.01 69.7594C169.992 69.6823 169.719 68.53 169.353 68.5314Z" fill="#F2F2F2"/>
<path d="M174.837 69.7623L174.671 68.284L174.747 68.1719C175.097 67.6537 175.276 67.1476 175.278 66.6672C175.278 66.5908 175.275 66.5144 175.271 66.4366C175.257 66.1283 175.239 65.745 175.439 65.2981C175.551 65.049 175.866 64.4722 176.339 64.5436C176.466 64.5615 176.563 64.62 176.636 64.6885C176.647 64.6714 176.658 64.6542 176.669 64.6357C176.817 64.4108 176.933 64.3145 177.046 64.2217C177.132 64.1503 177.221 64.0768 177.361 63.9026C177.423 63.8262 177.471 63.7591 177.511 63.7027C177.633 63.5321 177.793 63.3287 178.075 63.3323C178.376 63.3465 178.534 63.5957 178.639 63.7605C178.825 64.0546 178.91 64.2666 178.966 64.4073C178.986 64.4587 179.01 64.5165 179.021 64.5343C179.118 64.6771 179.908 64.5436 180.205 64.4951C180.873 64.3837 181.45 64.2873 181.689 64.7085C181.859 65.0097 181.732 65.408 181.301 65.9241C181.166 66.0847 181.023 66.2068 180.896 66.3024C181.001 66.3653 181.095 66.4616 181.134 66.613C181.224 66.9713 180.915 67.3303 180.218 67.6815C180.045 67.7693 179.812 67.8864 179.486 67.9428C179.332 67.9692 179.193 67.9756 179.075 67.9792C179.072 68.0477 179.056 68.122 179.015 68.1983C178.892 68.4232 178.637 68.5303 178.253 68.5046C177.831 68.4824 177.483 68.4018 177.176 68.3311C176.908 68.2697 176.677 68.2176 176.496 68.2297C176.159 68.2569 175.9 68.526 175.596 68.875L174.837 69.7623Z" fill="#F2F2F2"/>
<path d="M175.605 60.9604L174.217 61.4956L174.09 61.4508C173.5 61.2436 172.965 61.1993 172.5 61.3191C172.426 61.3382 172.353 61.361 172.278 61.3842C171.984 61.4762 171.617 61.5907 171.134 61.5107C170.865 61.4655 170.227 61.3073 170.176 60.8314C170.161 60.7036 170.193 60.5956 170.241 60.5074C170.222 60.5014 170.202 60.495 170.181 60.4883C169.927 60.4028 169.804 60.3143 169.685 60.2291C169.594 60.1637 169.501 60.096 169.297 60.0049C169.207 59.9649 169.13 59.9356 169.066 59.9109C168.869 59.8358 168.632 59.7327 168.564 59.4591C168.501 59.1641 168.702 58.9483 168.835 58.8053C169.072 58.5502 169.256 58.4146 169.378 58.3247C169.422 58.292 169.472 58.2549 169.487 58.2389C169.6 58.1088 169.271 57.3794 169.149 57.1041C168.872 56.4864 168.632 55.9519 168.979 55.6148C169.227 55.3734 169.644 55.3949 170.253 55.6818C170.442 55.7712 170.597 55.8787 170.722 55.9773C170.756 55.8595 170.825 55.7439 170.962 55.6686C171.285 55.4907 171.711 55.6976 172.227 56.2827C172.356 56.4279 172.529 56.6237 172.666 56.9252C172.731 57.0673 172.772 57.1997 172.805 57.3134C172.872 57.2984 172.948 57.2951 173.033 57.3161C173.281 57.3775 173.449 57.5969 173.522 57.9748C173.608 58.3892 173.618 58.7463 173.628 59.0611C173.636 59.336 173.644 59.5725 173.702 59.7448C173.814 60.0632 174.14 60.2456 174.554 60.4512L175.605 60.9604Z" fill="#F2F2F2"/>
<path d="M174.837 56.6053L174.671 55.127L174.747 55.0149C175.097 54.4966 175.276 53.9906 175.278 53.5102C175.278 53.4338 175.275 53.3574 175.271 53.2796C175.257 52.9712 175.239 52.5879 175.439 52.1411C175.551 51.8919 175.866 51.3152 176.339 51.3866C176.466 51.4044 176.563 51.4629 176.636 51.5315C176.647 51.5143 176.658 51.4972 176.669 51.4786C176.817 51.2538 176.933 51.1574 177.046 51.0646C177.132 50.9933 177.221 50.9197 177.361 50.7456C177.423 50.6692 177.471 50.6021 177.511 50.5457C177.633 50.3751 177.793 50.1716 178.075 50.1752C178.376 50.1895 178.534 50.4386 178.639 50.6035C178.825 50.8976 178.91 51.1096 178.966 51.2502C178.986 51.3016 179.01 51.3594 179.021 51.3773C179.118 51.52 179.908 51.3866 180.205 51.338C180.873 51.2267 181.45 51.1303 181.689 51.5514C181.859 51.8527 181.732 52.251 181.301 52.7671C181.166 52.9277 181.023 53.0497 180.896 53.1454C181.001 53.2082 181.095 53.3046 181.134 53.4559C181.224 53.8142 180.915 54.1733 180.218 54.5245C180.045 54.6123 179.812 54.7294 179.486 54.7858C179.332 54.8122 179.193 54.8186 179.075 54.8222C179.072 54.8907 179.056 54.9649 179.015 55.0413C178.892 55.2662 178.637 55.3732 178.253 55.3475C177.831 55.3254 177.483 55.2447 177.176 55.1741C176.908 55.1127 176.677 55.0606 176.496 55.0727C176.159 55.0998 175.9 55.3689 175.596 55.718L174.837 56.6053Z" fill="#F2F2F2"/>
<path d="M176.35 85.3006L176.04 85.1065L175.679 85.1479C175.673 85.1143 175.653 85.0372 175.624 84.9166C175.462 84.2556 174.969 82.2441 174.558 79.0761C174.271 76.8647 174.109 74.5913 174.075 72.3177C174.041 70.0407 174.149 68.3168 174.236 66.9313C174.301 65.8863 174.38 64.8912 174.458 63.9219C174.665 61.3321 174.86 58.8859 174.715 56.1777C174.683 55.5731 174.615 54.3146 173.88 52.9755C173.454 52.1989 172.866 51.5093 172.134 50.9269L172.589 50.3544C173.398 50.9982 174.048 51.762 174.521 52.6243C175.336 54.1091 175.41 55.4803 175.445 56.1391C175.593 58.8952 175.396 61.365 175.186 63.9797C175.109 64.9455 175.03 65.9363 174.965 66.977C174.879 68.3497 174.773 70.0585 174.806 72.3063C174.839 74.5527 174.999 76.7984 175.282 78.9819C175.689 82.1099 176.174 84.0914 176.334 84.7424C176.419 85.09 176.437 85.1628 176.35 85.3006Z" fill="#F2F2F2"/>
<path d="M170.793 52.0883C170.763 52.0883 170.733 52.0875 170.702 52.0854C170.08 52.0518 169.503 51.6792 168.988 50.9783C168.747 50.6485 168.624 50.2723 168.377 49.5221C168.339 49.4064 168.154 48.8197 168.041 48.0124C167.967 47.4848 167.976 47.2643 168.081 47.0694C168.197 46.8524 168.385 46.7011 168.596 46.599C168.587 46.5291 168.594 46.457 168.624 46.3834C168.749 46.0786 169.08 46.1186 169.259 46.1379C169.35 46.1493 169.463 46.1643 169.585 46.1579C169.777 46.1486 169.88 46.0915 170.037 46.0058C170.186 45.9237 170.372 45.8217 170.648 45.7653C171.192 45.6518 171.648 45.806 171.798 45.8566C172.589 46.12 172.978 46.7346 173.43 47.4463C173.519 47.5891 173.828 48.1087 174.032 48.8211C174.179 49.335 174.158 49.5635 174.114 49.7334C174.024 50.0824 173.812 50.2823 173.272 50.7234C172.709 51.1853 172.427 51.4165 172.184 51.5572C171.619 51.8834 171.264 52.0883 170.793 52.0883Z" fill="#F2F2F2"/>
<path d="M87.8774 51.4841H16.208V70.0996H87.8774V51.4841Z" fill="#5AB2FF"/>
<path d="M61.8156 0.291687H43.2002V124.55H61.8156V0.291687Z" fill="#5AB2FF"/>
<path opacity="0.2" d="M62.5038 68.6981C62.6356 68.1853 62.7142 67.6524 62.7333 67.1032L86.0158 45.8995L66.0042 36.1264L57.1845 59.6456C56.5817 59.4881 55.9525 59.3957 55.3003 59.3957C54.9541 59.3957 54.616 59.4276 54.2823 59.4733L45.5272 36.1264L25.5156 45.8995L47.883 66.2698C47.8686 66.4593 47.8541 66.6488 47.8541 66.8419C47.8541 67.484 47.944 68.1037 48.0968 68.6981C34.3862 72.983 28.7733 85.9227 28.7733 85.9227L45.9926 99.8843C44.9656 89.6144 51.2373 79.1003 54.6278 74.2541C54.8497 74.274 55.0733 74.288 55.3003 74.288C55.5274 74.288 55.7509 74.274 55.9728 74.2541C59.3634 79.1003 65.635 89.6144 64.608 99.8843L81.8273 85.9227C81.8273 85.9227 76.2144 72.983 62.5038 68.6981Z" fill="black"/>
<path d="M65.0323 94.8533C64.8315 94.8533 64.6291 94.8097 64.438 94.7203C63.9546 94.4947 63.6493 94.0244 63.6409 93.4929C63.4997 84.4894 58.3659 75.6528 55.3181 71.1869C55.1146 70.8887 54.7631 70.7107 54.3777 70.7107H54.376C53.9765 70.7107 53.625 70.8887 53.4215 71.1869C50.3739 75.6528 45.24 84.4894 45.0988 93.4929C45.0903 94.0241 44.785 94.4947 44.3016 94.7203C43.8134 94.949 43.2502 94.8798 42.8322 94.5411L28.52 82.9364C28.0091 82.5219 27.8591 81.7961 28.1635 81.2102C29.6102 78.4241 35.18 69.0338 46.111 65.1723C46.5988 65 46.895 64.5143 46.8312 63.9911C46.7957 63.6988 46.7778 63.4054 46.7778 63.1189C46.7785 62.777 46.6479 62.4666 46.4194 62.2586L25.8434 43.5195C25.5021 43.2088 25.3375 42.7504 25.4027 42.2935C25.4681 41.8366 25.7548 41.4427 26.1695 41.2402L43.3011 32.8739C43.6524 32.7021 44.0625 32.6869 44.4264 32.8313C44.79 32.976 45.0772 33.2692 45.2147 33.6356L53.158 54.8178C53.3219 55.255 53.7424 55.5405 54.2196 55.5285C54.5795 55.5202 54.9446 55.541 55.3085 55.5883C55.822 55.657 56.3067 55.3673 56.4864 54.887L64.4558 33.6356C64.5932 33.2692 64.8805 32.976 65.2441 32.8313C65.6077 32.687 66.0182 32.7022 66.3694 32.8739L83.5007 41.2402C83.9156 41.4427 84.2024 41.8366 84.2676 42.2938C84.333 42.7504 84.1682 43.2088 83.827 43.5195L62.2699 63.1522C62.0689 63.3351 61.9439 63.5849 61.9177 63.8552C61.912 63.9136 61.9058 63.972 61.8989 64.0301C61.8398 64.5217 62.1453 65.0017 62.6252 65.1712C73.5586 69.0318 79.1292 78.4238 80.5763 81.2102C80.8806 81.7961 80.7307 82.5219 80.2198 82.9364L65.9074 94.5411C65.653 94.7474 65.3447 94.8533 65.0323 94.8533Z" fill="#5AB2FF"/>
<path d="M185.912 124.956H125.806C123.318 124.956 121.294 122.931 121.294 120.444V89.8616C121.294 87.3737 123.318 85.3496 125.806 85.3496H185.912C188.399 85.3496 190.423 87.3737 190.423 89.8616V120.444C190.423 122.931 188.399 124.956 185.912 124.956ZM125.806 85.933C123.64 85.933 121.877 87.6953 121.877 89.8616V120.444C121.877 122.61 123.64 124.372 125.806 124.372H185.912C188.078 124.372 189.84 122.61 189.84 120.444V89.8616C189.84 87.6953 188.078 85.933 185.912 85.933H125.806Z" fill="#3F3D56"/>
<path d="M161.892 85.3846H151.623V124.921H161.892V85.3846Z" fill="#5AB2FF"/>
<path d="M190.132 100.275H121.585V110.544H190.132V100.275Z" fill="#5AB2FF"/>
<path opacity="0.2" d="M153.855 111.798C154.137 111.871 154.431 111.915 154.734 111.925L166.431 124.769L171.822 113.729L158.848 108.864C158.935 108.532 158.986 108.185 158.986 107.825C158.986 107.634 158.969 107.447 158.943 107.263L171.822 102.433L166.431 91.3942L155.194 103.733C155.09 103.725 154.985 103.717 154.878 103.717C154.524 103.717 154.182 103.767 153.855 103.851C151.491 96.2876 144.353 93.1913 144.353 93.1913L136.651 102.69C142.316 102.124 148.116 105.583 150.79 107.454C150.779 107.576 150.771 107.699 150.771 107.825C150.771 107.95 150.779 108.073 150.79 108.196C148.116 110.066 142.316 113.526 136.651 112.959L144.353 122.458C144.353 122.458 151.491 119.362 153.855 111.798Z" fill="black"/>
<path d="M166.853 123.003C166.62 123.003 166.397 122.905 166.237 122.731L155.407 110.838C155.317 110.74 155.187 110.678 155.041 110.663L154.994 110.658C154.729 110.629 154.488 110.772 154.405 111.007C152.267 117.068 147.063 120.152 145.518 120.953C145.17 121.135 144.738 121.043 144.491 120.737L138.088 112.841C137.885 112.591 137.844 112.254 137.981 111.961C138.116 111.672 138.396 111.49 138.713 111.485C143.663 111.409 148.526 108.584 150.984 106.907C151.132 106.806 151.221 106.631 151.22 106.44C151.221 106.241 151.132 106.067 150.984 105.966C148.526 104.289 143.664 101.464 138.713 101.387C138.396 101.382 138.116 101.2 137.981 100.912C137.844 100.619 137.885 100.281 138.088 100.031L144.491 92.135C144.739 91.8297 145.171 91.7385 145.518 91.9185C147.062 92.7198 152.266 95.8042 154.404 101.863C154.487 102.098 154.724 102.244 154.962 102.216C155.221 102.183 155.48 102.175 155.729 102.194L166.237 90.6552C166.424 90.451 166.698 90.3521 166.971 90.3917C167.245 90.4311 167.48 90.6025 167.601 90.8506L172.217 100.302C172.32 100.512 172.329 100.758 172.242 100.976C172.156 101.193 171.98 101.365 171.761 101.447L160.076 105.829C159.861 105.909 159.72 106.12 159.726 106.352L159.727 106.436C159.727 106.618 159.714 106.803 159.69 106.986C159.657 107.221 159.804 107.455 160.038 107.543L171.761 111.939C171.98 112.021 172.156 112.193 172.243 112.411C172.329 112.628 172.32 112.874 172.217 113.084L167.601 122.536C167.48 122.784 167.245 122.955 166.971 122.994C166.932 123 166.892 123.003 166.853 123.003Z" fill="#5AB2FF"/>
<path d="M112.417 50.079H103.017V46.9839C103.017 41.7959 107.229 37.5839 112.417 37.5839L112.417 50.079Z" fill="#2F2E41"/>
<path d="M110.334 44.3011L111.95 51.5705L102.479 49.9979L106.338 43.1228L110.334 44.3011Z" fill="#FFB6B6"/>
<path opacity="0.1" d="M110.334 44.3011L111.95 51.5705L102.479 49.9979L106.338 43.1228L110.334 44.3011Z" fill="black"/>
<path d="M110.333 59.8301H101.253V73.2685H110.333V59.8301Z" fill="#FFB6B6"/>
<path d="M116.235 84.2553L114.238 94.9698C114.238 94.9698 115.509 102.415 111.695 110.043L109.153 117.851L105.339 117.307C105.339 117.307 107.7 111.495 107.7 108.953C107.7 106.411 108.245 96.6042 108.245 96.6042L107.973 85.4143L116.235 84.2553Z" fill="#FFB6B6"/>
<path d="M104.795 117.125C104.795 117.125 109.153 115.491 109.516 117.851L109.335 118.941C109.335 118.941 110.969 123.844 108.608 124.207C106.247 124.571 104.068 125.115 103.887 124.026C103.705 122.936 103.708 121.576 104.16 120.622C104.613 119.667 104.795 117.125 104.795 117.125Z" fill="#2F2E41"/>
<path d="M102.488 82.5933L101.427 93.4406C101.427 93.4406 98.1353 100.239 99.6773 108.626L99.9477 116.834L103.762 117.371C103.762 117.371 103.111 111.132 103.818 108.69C104.525 106.248 106.729 96.6772 106.729 96.6772L110.103 86.0045L102.488 82.5933Z" fill="#FFB6B6"/>
<path d="M104.336 117.348C104.336 117.348 100.605 114.566 99.5991 116.733L99.4705 117.83C99.4705 117.83 96.5887 123.253 98.7553 124.258C100.922 125.263 102.812 125.225 103.289 124.229C103.767 123.233 104.142 121.926 103.973 120.883C103.804 119.841 104.336 117.348 104.336 117.348Z" fill="#2F2E41"/>
<path d="M113.875 67.0033L121.683 83.5289C121.683 83.5289 105.975 91.4286 96.7134 91.4286L101.312 67.0033L113.875 67.0033Z" fill="#2F2E41"/>
<path d="M106.883 47.6628L111.423 48.3892L111.06 59.8301L116.145 69.9997L109.607 73.2685C109.607 73.2685 104.522 63.6437 103.614 57.6509C102.706 51.658 103.251 47.2996 103.251 47.2996L106.883 47.6628Z" fill="#E6E6E6"/>
<path d="M103.432 48.026L98.8924 48.7524L99.2556 60.1933L98.166 70.7261L100.708 73.6317C100.708 73.6317 105.793 64.0069 106.701 58.0141C107.609 52.0213 107.064 47.6628 107.064 47.6628L103.432 48.026Z" fill="#E6E6E6"/>
<path d="M110.424 48.6616L111.423 48.3892C111.423 48.3892 114.964 47.9352 115.509 49.388C116.054 50.8408 115.872 59.3761 115.872 59.3761C115.872 59.3761 116.809 69.8517 113.163 69.9711C109.516 70.0905 110.243 61.3737 110.243 61.3737L110.424 48.6616Z" fill="#E6E6E6"/>
<path d="M108.749 46.2961C111.345 46.2961 113.449 44.1918 113.449 41.5961C113.449 39.0003 111.345 36.8961 108.749 36.8961C106.153 36.8961 104.049 39.0003 104.049 41.5961C104.049 44.1918 106.153 46.2961 108.749 46.2961Z" fill="#FFB6B6"/>
<path d="M107.278 48.0645C108.287 47.8087 109.43 48.8856 109.832 50.4705C110.001 51.1014 110.017 51.7636 109.878 52.4019L110.311 54.2034L110.343 54.2017L113.76 62.2555C114.555 64.1281 114.471 66.2779 113.458 68.0417C112.855 69.0909 112.063 69.7963 111.134 69.0762C109.592 67.8815 108.585 61.0406 108.125 57.1109L107.062 53.1164C106.635 52.6216 106.333 52.0318 106.181 51.3963C105.779 49.8121 106.27 48.3204 107.278 48.0645Z" fill="#FFB6B6"/>
<path d="M102.888 48.6616L101.889 48.3892C101.889 48.3892 98.348 47.9352 97.8032 49.388C97.2584 50.8409 97.44 59.3761 97.44 59.3761C97.44 59.3761 96.503 69.8517 100.149 69.9711C103.796 70.0905 103.07 61.3737 103.07 61.3737L102.888 48.6616Z" fill="#E6E6E6"/>
<path d="M106.034 48.0645C105.025 47.8087 103.882 48.8856 103.48 50.4705C103.311 51.1014 103.295 51.7636 103.434 52.4019L103.001 54.2034L102.969 54.2017L99.5515 62.2555C98.7569 64.1281 98.8408 66.2779 99.8543 68.0417C100.457 69.0909 101.249 69.7963 102.178 69.0762C103.72 67.8815 104.727 61.0406 105.187 57.1109L106.25 53.1164C106.677 52.6216 106.979 52.0318 107.131 51.3963C107.533 49.8121 107.042 48.3204 106.034 48.0645Z" fill="#FFB6B6"/>
<path d="M99.7508 45.3984C99.9899 44.6715 100.462 44.0351 100.673 43.2996C100.953 42.323 101.55 44.4895 101.608 43.4752C101.719 41.5472 104.662 36.5878 106.342 35.6351C108.021 34.6825 108.986 34.9697 110.698 35.8644C110.698 35.8644 111.528 35.9172 112.563 36.4278C113.597 36.9384 114.528 37.7562 114.93 38.8372C115.249 39.6941 115.214 40.635 115.32 41.543C115.617 44.0727 117.035 46.4786 116.731 49.0074C116.636 49.7963 116.336 50.6122 115.691 51.0762C115.046 51.5403 114.004 51.4898 113.579 50.8181C113.434 50.5889 113.373 50.317 113.249 50.0759C113.124 49.8348 112.9 49.6101 112.629 49.6176C112.222 49.6288 112.014 50.1756 112.175 50.5502C112.335 50.9248 112.713 51.1509 113.068 51.3521C112.223 51.7319 111.176 51.6136 110.438 51.0551C109.699 50.4966 109.301 49.5209 109.436 48.6051C109.628 47.3147 111.508 47.5818 111.729 46.2961C111.891 45.3602 112.457 43.7942 112.303 42.8571C112.148 41.92 111.408 43.0546 112.188 42.5132C111.33 42.927 109.493 40.0961 108.595 39.779C107.696 39.4619 106.934 38.7754 106.526 37.9145C105.573 39.2962 104.734 38.9209 104.393 40.5644C104.051 42.2078 104.367 45.9415 105.773 46.8591C105.21 47.2429 104.762 47.7917 104.498 48.4194C104.348 48.775 104.251 49.1641 104.003 49.4595C103.529 50.0235 102.654 50.0578 101.956 49.8207C101.091 49.5266 100.352 48.8807 99.9442 48.0631C99.5365 47.2456 99.4654 46.2663 99.7508 45.3984Z" fill="#2F2E41"/>
</g>
<defs>
<clipPath id="clip0_503_3660">
<rect width="200" height="124.994" fill="white" transform="translate(0.5)"/>
</clipPath>
</defs>
</svg>
