<svg width="201" height="144" viewBox="0 0 201 144" fill="none" xmlns="http://www.w3.org/2000/svg">
<g clip-path="url(#clip0_503_3828)">
<path d="M5.79541 143.228C5.79541 143.404 5.93645 143.545 6.11208 143.545H200.183C200.359 143.545 200.5 143.404 200.5 143.228C200.5 143.053 200.359 142.911 200.183 142.911H6.11208C5.93645 142.911 5.79541 143.053 5.79541 143.228Z" fill="#3F3D58"/>
<path d="M67.9403 25.3203H5.69726C3.32356 25.3203 1.3916 23.3884 1.3916 21.0147C1.3916 18.641 3.32356 16.709 5.69726 16.709H67.9403C70.314 16.709 72.2459 18.641 72.2459 21.0147C72.2459 23.3884 70.314 25.3203 67.9403 25.3203ZM5.69726 17.2412C3.61628 17.2412 1.92382 18.9337 1.92382 21.0147C1.92382 23.0956 3.61628 24.7881 5.69726 24.7881H67.9403C70.0213 24.7881 71.7137 23.0956 71.7137 21.0147C71.7137 18.9337 70.0213 17.2412 67.9403 17.2412H5.69726Z" fill="#E2E3E4"/>
<path d="M67.94 75.7082H5.69701C3.39516 75.7082 1.52441 73.8374 1.52441 71.5356C1.52441 69.2337 3.39516 67.363 5.69701 67.363H67.94C70.2419 67.363 72.1126 69.2337 72.1126 71.5356C72.1126 73.8374 70.2419 75.7082 67.94 75.7082Z" fill="#5AB2FF"/>
<path d="M47.5429 8.3452H4.6726C2.37075 8.3452 0.5 6.47445 0.5 4.1726C0.5 1.87075 2.37075 0 4.6726 0H47.5429C49.8447 0 51.7155 1.87075 51.7155 4.1726C51.7155 6.47445 49.8447 8.3452 47.5429 8.3452Z" fill="#E2E3E4"/>
<path d="M67.9403 42.1597H5.69726C3.32356 42.1597 1.3916 40.2278 1.3916 37.8541C1.3916 35.4804 3.32356 33.5484 5.69726 33.5484H67.9403C70.314 33.5484 72.2459 35.4804 72.2459 37.8541C72.2459 40.2278 70.314 42.1597 67.9403 42.1597ZM5.69726 34.0807C3.61628 34.0807 1.92382 35.7731 1.92382 37.8541C1.92382 39.9351 3.61628 41.6275 5.69726 41.6275H67.9403C70.0213 41.6275 71.7137 39.9351 71.7137 37.8541C71.7137 35.7731 70.0213 34.0807 67.9403 34.0807H5.69726Z" fill="#E2E3E4"/>
<path d="M67.9403 59.0018H5.69726C3.32356 59.0018 1.3916 57.0699 1.3916 54.6962C1.3916 52.3225 3.32356 50.3905 5.69726 50.3905H67.9403C70.314 50.3905 72.2459 52.3225 72.2459 54.6962C72.2459 57.0699 70.314 59.0018 67.9403 59.0018ZM5.69726 50.9227C3.61628 50.9227 1.92382 52.6152 1.92382 54.6962C1.92382 56.7771 3.61628 58.4696 5.69726 58.4696H67.9403C70.0213 58.4696 71.7137 56.7771 71.7137 54.6962C71.7137 52.6152 70.0213 50.9227 67.9403 50.9227H5.69726Z" fill="#E2E3E4"/>
<path d="M3.55773 13.6168H19.8702C20.2588 13.6168 20.5754 13.9308 20.5754 14.322C20.5754 14.7105 20.2588 15.0272 19.8702 15.0272H3.55773C3.16921 15.0272 2.85254 14.7132 2.85254 14.322C2.85254 13.9335 3.16921 13.6168 3.55773 13.6168Z" fill="#E2E3E4"/>
<path d="M3.55773 30.8554H19.8702C20.2588 30.8554 20.5754 31.1694 20.5754 31.5579C20.5754 31.9465 20.2588 32.2631 19.8702 32.2631H3.55773C3.16921 32.2631 2.85254 31.9491 2.85254 31.5606C2.85254 31.1721 3.16921 30.8554 3.55773 30.8554Z" fill="#E2E3E4"/>
<path d="M3.55773 48.0966H19.8702C20.2588 48.0966 20.5754 48.4107 20.5754 48.8018C20.5754 49.1904 20.2588 49.5044 19.8702 49.5044H3.55773C3.16921 49.5044 2.85254 49.1904 2.85254 48.7992C2.85254 48.4107 3.16921 48.0966 3.55773 48.0966Z" fill="#E2E3E4"/>
<path d="M119.473 35.1957L113.522 37.1542V28.5882H118.922L119.473 35.1957Z" fill="#9F616A"/>
<path d="M114.259 30.9592C117.534 30.9592 120.188 28.3047 120.188 25.0303C120.188 21.7558 117.534 19.1014 114.259 19.1014C110.985 19.1014 108.331 21.7558 108.331 25.0303C108.331 28.3047 110.985 30.9592 114.259 30.9592Z" fill="#9F616A"/>
<path d="M115.888 24.4422C114.895 24.4129 114.243 23.4097 113.857 22.4943C113.472 21.5788 113.075 20.5277 112.154 20.1498C111.401 19.8411 110.073 21.9301 109.48 21.3739C108.86 20.7938 109.464 17.8161 110.121 17.2812C110.779 16.7463 111.678 16.6425 112.524 16.6026C114.589 16.5068 116.668 16.6744 118.693 17.0976C119.946 17.3583 121.234 17.7522 122.139 18.657C123.283 19.8066 123.576 21.5389 123.658 23.1595C123.743 24.8174 123.648 26.5524 122.841 28.0027C122.035 29.453 120.348 30.5228 118.73 30.1529C118.568 29.2747 118.733 28.3726 118.796 27.4785C118.858 26.587 118.794 25.6237 118.248 24.9132C117.705 24.2027 116.54 23.9206 115.906 24.5513" fill="#2F2E43"/>
<path d="M123.182 26.4965C123.775 26.0628 124.486 25.6982 125.215 25.7887C126.003 25.8845 126.671 26.5338 126.873 27.3029C127.075 28.0719 126.849 28.9181 126.359 29.5462C125.872 30.1742 125.146 30.5893 124.379 30.7969C123.935 30.9166 123.448 30.9672 123.025 30.7862C122.402 30.5175 122.064 29.7218 122.309 29.0885" fill="#2F2E43"/>
<path d="M100.494 82.2811C100.097 84.229 100.824 86.0093 102.112 86.2568C103.399 86.5043 104.765 85.1232 105.158 83.1752C105.326 82.3982 105.3 81.5946 105.081 80.8282L109.986 50.2921L103.852 49.1372L101.483 80.1389C100.981 80.767 100.643 81.5014 100.494 82.2838V82.2811Z" fill="#9F616A"/>
<path d="M113.458 33.2238H109.273C106.313 33.6735 105.51 35.2516 104.837 38.1681C103.809 42.6175 102.497 48.5411 102.758 48.6289C103.176 48.7673 110.302 52.1202 113.935 51.3538L113.458 33.2238Z" fill="#E2E3E4"/>
<path d="M117.506 130.49H111.934V138.396H117.506V130.49Z" fill="#9F616A"/>
<path d="M106.507 143.18C105.922 143.18 105.4 143.167 105.007 143.13C103.527 142.994 102.114 141.9 101.403 141.262C101.084 140.974 100.983 140.517 101.148 140.123C101.268 139.841 101.505 139.628 101.8 139.545L105.712 138.428L112.045 134.154L112.117 134.282C112.144 134.329 112.766 135.45 112.974 136.206C113.054 136.493 113.032 136.732 112.913 136.919C112.83 137.046 112.713 137.121 112.62 137.164C112.734 137.283 113.094 137.528 114.201 137.704C115.816 137.959 116.157 136.285 116.17 136.216L116.181 136.16L116.228 136.128C116.998 135.633 117.471 135.407 117.634 135.455C117.735 135.484 117.905 135.538 118.365 140.096C118.411 140.24 118.733 141.288 118.514 142.292C118.278 143.383 113.509 143.007 112.553 142.922C112.527 142.925 108.956 143.18 106.51 143.18H106.507Z" fill="#2F2E43"/>
<path d="M133.373 124.278L128.645 127.227L132.829 133.935L137.557 130.986L133.373 124.278Z" fill="#9F616A"/>
<path d="M127.094 142.097C126.439 142.097 125.838 142.017 125.41 141.943C124.989 141.868 124.659 141.533 124.59 141.113C124.542 140.809 124.63 140.503 124.837 140.277L127.565 137.259L130.679 130.282L130.806 130.351C130.854 130.378 131.974 130.998 132.552 131.53C132.773 131.732 132.882 131.948 132.877 132.169C132.874 132.323 132.815 132.445 132.757 132.533C132.916 132.576 133.35 132.592 134.383 132.155C135.889 131.519 135.293 129.917 135.266 129.851L135.245 129.798L135.269 129.747C135.66 128.919 135.939 128.478 136.104 128.432C136.208 128.403 136.379 128.358 139.181 131.985C139.295 132.081 140.123 132.802 140.469 133.768C140.844 134.819 136.599 137.025 135.745 137.456C135.719 137.478 131.277 140.705 129.452 141.624C128.728 141.988 127.871 142.1 127.091 142.1L127.094 142.097Z" fill="#2F2E43"/>
<path d="M121.61 64.3746H106.008L104.592 78.8882L110.787 132.515H118.751L115.566 101.542L128.486 129.505L135.564 124.55L125.476 98.4446C125.476 98.4446 129.079 75.7029 126.248 70.0374C123.416 64.3746 121.61 64.3746 121.61 64.3746Z" fill="#2F2E43"/>
<path d="M129.372 65.2581H104.592L112.027 33.2238H122.823L129.372 65.2581Z" fill="#E2E3E4"/>
<path d="M131.602 82.2811C131.998 84.229 131.272 86.0093 129.984 86.2568C128.696 86.5043 127.331 85.1231 126.937 83.1752C126.769 82.3982 126.796 81.5945 127.014 80.8281L122.11 50.2921L128.244 49.1371L130.612 80.1389C131.115 80.7669 131.453 81.5014 131.602 82.2838V82.2811Z" fill="#9F616A"/>
<path d="M118.637 33.2238H122.823C125.782 33.6735 126.586 35.2516 127.259 38.1681C128.286 42.6175 129.598 48.5411 129.337 48.6289C128.919 48.7673 121.793 52.1202 118.161 51.3538L118.637 33.2238Z" fill="#E2E3E4"/>
</g>
<defs>
<clipPath id="clip0_503_3828">
<rect width="200" height="143.545" fill="white" transform="translate(0.5)"/>
</clipPath>
</defs>
</svg>
